<?xml version="1.0" standalone="no"?>
<!DOCTYPE svg PUBLIC "-//W3C//DTD SVG 20010904//EN"
 "http://www.w3.org/TR/2001/REC-SVG-20010904/DTD/svg10.dtd">
<svg version="1.0" xmlns="http://www.w3.org/2000/svg"
 width="140.000000pt" height="140.000000pt" viewBox="0 0 140.000000 140.000000"
 preserveAspectRatio="xMidYMid meet">

<g transform="translate(0.000000,140.000000) scale(0.100000,-0.100000)"
fill="#000000" stroke="none">
<path d="M308 1195 c-110 -28 -188 -82 -235 -163 -39 -66 -45 -186 -13 -260
44 -103 129 -150 349 -194 158 -31 191 -45 191 -83 0 -93 -191 -95 -374 -3
-34 17 -69 37 -79 46 -9 8 -19 13 -20 11 -2 -2 -32 -51 -66 -108 -70 -117 -72
-105 24 -160 137 -79 354 -111 516 -77 222 47 339 213 285 400 -36 125 -138
190 -369 237 -169 35 -198 49 -181 94 27 70 252 55 363 -26 24 -17 44 -29 45
-27 2 2 29 47 61 102 45 78 54 100 44 108 -115 77 -222 110 -369 114 -78 3
-133 -1 -172 -11z"/>
<path d="M1150 1179 c-32 -13 -78 -57 -96 -91 -17 -32 -18 -105 -3 -145 34
-92 143 -137 236 -98 50 21 72 42 94 90 36 78 13 168 -56 221 -29 21 -50 29
-93 31 -32 1 -68 -2 -82 -8z m114 -69 c31 -11 66 -65 66 -100 0 -37 -33 -85
-69 -99 -93 -39 -183 58 -140 152 22 48 86 69 143 47z"/>
<path d="M1150 549 c-32 -13 -78 -56 -96 -91 -8 -15 -14 -50 -14 -78 0 -57 15
-93 57 -132 124 -117 331 -3 299 166 -20 105 -147 174 -246 135z"/>
</g>
</svg>
